<svg width="48" height="48" viewBox="0 0 48 48" fill="none" xmlns="http://www.w3.org/2000/svg">
  <rect width="48" height="48" rx="8" fill="#3B82F6"/>
  <path d="M24 10C16.8203 10 11 15.8203 11 23C11 30.1797 16.8203 36 24 36C31.1797 36 37 30.1797 37 23C37 15.8203 31.1797 10 24 10ZM24 12.75C26.9609 12.75 29.5781 14.0156 31.3906 16.0781L16.0781 31.3906C14.0156 29.5781 12.75 26.9609 12.75 24C12.75 16.7969 16.7969 12.75 24 12.75ZM24 33.25C21.0391 33.25 18.4219 31.9844 16.6094 29.9219L31.9219 14.6094C33.9844 16.4219 35.25 19.0391 35.25 22C35.25 29.2031 31.2031 33.25 24 33.25Z" fill="white"/>
</svg> 